<?xml version="1.0" encoding="utf-8"?>
<!-- Generator: Adobe Illustrator 19.0.0, SVG Export Plug-In . SVG Version: 6.00 Build 0)  -->
<svg version="1.1" id="Layer_1" xmlns="http://www.w3.org/2000/svg" xmlns:xlink="http://www.w3.org/1999/xlink" x="0px" y="0px"
	 viewBox="-289 412.9 16 31.8" style="enable-background:new -289 412.9 16 31.8;" xml:space="preserve">
<style type="text/css">
	.st0{fill:#B72323;}
</style>
<path class="st0" d="M-281,412.9c-3.3,0-6,2.7-6,6c0,3.9,4.3,8.7,5,9.4c0.3,0.3,0.5,0.6,1,0.6s0.7-0.3,1-0.6c0.7-0.7,5-5.5,5-9.4
	C-275,415.6-277.7,412.9-281,412.9z M-281,422.9c-2.2,0-4-1.8-4-4s1.8-4,4-4s4,1.8,4,4S-278.8,422.9-281,422.9z M-281,416.9
	c-1.1,0-2,0.9-2,2s0.9,2,2,2s2-0.9,2-2S-279.9,416.9-281,416.9z"/>
</svg>
